<svg width="155" height="38" viewBox="0 0 155 38" fill="none" xmlns="http://www.w3.org/2000/svg">
<mask id="mask0_952_24648" style="mask-type:luminance" maskUnits="userSpaceOnUse" x="0" y="0" width="155" height="38">
<path d="M0 0H155V37.8H0V0Z" fill="white"></path>
</mask>
<g mask="url(#mask0_952_24648)">
<path d="M3 10.4299V27.6199C2.99993 27.7253 3.02762 27.8288 3.08029 27.9201C3.13295 28.0114 3.20873 28.0872 3.3 28.1399L13.257 33.8879C13.3481 33.9409 13.4516 33.9689 13.557 33.9689C13.6624 33.9689 13.7659 33.9409 13.857 33.8879L25.367 27.2439C25.4583 27.1912 25.534 27.1154 25.5867 27.0241C25.6394 26.9328 25.6671 26.8293 25.667 26.7239V9.53287C25.6672 9.42746 25.6395 9.32387 25.5868 9.23257C25.5342 9.14127 25.4583 9.06548 25.367 9.01287L21.701 6.89787C21.6098 6.84521 21.5063 6.81748 21.401 6.81748C21.2957 6.81748 21.1922 6.84521 21.101 6.89787L19.378 7.89287V5.90287C19.3782 5.79746 19.3505 5.69387 19.2978 5.60257C19.2452 5.51127 19.1693 5.43548 19.078 5.38287L15.41 3.26587C15.3187 3.2134 15.2153 3.18579 15.11 3.18579C15.0047 3.18579 14.9013 3.2134 14.81 3.26587L11.269 5.31087C11.1777 5.36356 11.102 5.43936 11.0493 5.53065C10.9966 5.62193 10.9689 5.72548 10.969 5.83087V10.2939L10.753 10.4189V10.1229C10.7531 10.0175 10.7254 9.91393 10.6727 9.82265C10.62 9.73136 10.5443 9.65556 10.453 9.60287L7.443 7.86387C7.35169 7.8115 7.24826 7.78394 7.143 7.78394C7.03774 7.78394 6.93431 7.8115 6.843 7.86387L3.301 9.90987C3.20966 9.96248 3.13383 10.0383 3.08115 10.1296C3.02848 10.2209 3.00083 10.3245 3.001 10.4299H3ZM3.9 10.9489L6.312 12.3389V16.9759L6.315 16.9939L6.321 17.0329C6.32582 17.0597 6.33458 17.0856 6.347 17.1099C6.35 17.1149 6.349 17.1209 6.353 17.1259C6.355 17.1309 6.36 17.1319 6.363 17.1359C6.38209 17.1652 6.40651 17.1906 6.435 17.2109C6.445 17.2189 6.451 17.2299 6.462 17.2359L9.742 19.1319C9.746 19.1339 9.752 19.1319 9.756 19.1349C9.79747 19.1575 9.84377 19.1699 9.891 19.1709C9.941 19.1709 9.985 19.1569 10.026 19.1359C10.037 19.1299 10.046 19.1219 10.057 19.1149C10.087 19.0944 10.1131 19.0686 10.134 19.0389C10.139 19.0309 10.147 19.0289 10.152 19.0209C10.155 19.0159 10.155 19.0089 10.158 19.0039C10.167 18.9859 10.171 18.9679 10.176 18.9479C10.1825 18.9284 10.1865 18.9083 10.188 18.8879C10.188 18.8829 10.192 18.8779 10.192 18.8709V14.5809L13.258 16.3509V32.8489L3.9 27.4499V10.9489ZM24.467 9.53187L21.527 11.2309L18.461 9.45987L18.927 9.18987L21.4 7.76187L24.467 9.53187ZM18.177 5.90187L15.235 7.59887L12.169 5.82887L15.11 4.12987L18.176 5.90187H18.177ZM9.551 10.1229L6.611 11.8209L4.201 10.4299L7.141 8.72987L9.551 10.1229ZM15.573 12.9059L17.56 11.7609V14.2729C17.56 14.2849 17.566 14.2959 17.568 14.3089C17.5704 14.3488 17.5831 14.3874 17.605 14.4209C17.615 14.4369 17.623 14.4529 17.636 14.4669C17.65 14.4829 17.666 14.4949 17.682 14.5079C17.692 14.5159 17.699 14.5259 17.71 14.5329L20.926 16.3879L17.398 18.4249V14.1349C17.398 14.1279 17.395 14.1229 17.395 14.1169C17.3931 14.0769 17.3829 14.0377 17.365 14.0019C17.361 13.9959 17.362 13.9899 17.358 13.9849C17.354 13.9789 17.35 13.9759 17.346 13.9719C17.3236 13.9378 17.2948 13.9086 17.261 13.8859C17.256 13.8829 17.253 13.8769 17.248 13.8739L15.573 12.9059ZM18.16 9.97987L21.227 11.7509V15.8689L18.16 14.0989V9.97987ZM10.491 14.0619L13.433 12.3619L16.498 14.1339L13.556 15.8309L10.491 14.0619ZM9.591 18.3519L7.211 16.9769L9.591 15.6029V18.3529V18.3519ZM10.451 11.6309L11.567 10.9869L13.093 11.8669L10.451 13.3919V11.6309ZM11.867 6.34887L14.934 8.11887V12.2359L11.868 10.4669V6.34887H11.867Z" fill="#1D293D"></path>
<path d="M38.8042 9.99699V24.0877H45.838V26.8H35.8619V9.99699H38.8042ZM51.1958 27.0989C48.7822 27.0989 47.3111 25.6967 47.3111 23.559C47.3111 21.4672 48.8282 20.157 51.5176 19.9501L54.9196 19.6973V19.4444C54.9196 17.9043 54.0001 17.2837 52.575 17.2837C50.92 17.2837 50.0005 17.9733 50.0005 19.1686H47.6099C47.6099 16.709 49.6327 15.1 52.7129 15.1C55.7701 15.1 57.655 16.755 57.655 19.9041V26.8H55.1954L54.9886 25.122C54.5058 26.2943 52.9658 27.0989 51.1958 27.0989ZM52.1153 24.9841C53.8392 24.9841 54.9426 23.9497 54.9426 22.2028V21.6051L52.575 21.789C50.828 21.9499 50.1614 22.5246 50.1614 23.444C50.1614 24.4784 50.851 24.9841 52.1153 24.9841ZM63.2143 26.8H60.4099V15.4448H63.0074L63.2373 16.9159C63.9498 15.7666 65.329 15.1 66.8691 15.1C69.7194 15.1 71.1906 16.8699 71.1906 19.8122V26.8H68.3862V20.4788C68.3862 18.5709 67.4438 17.6515 65.9956 17.6515C64.2716 17.6515 63.2143 18.8468 63.2143 20.6857V26.8ZM73.3023 20.8696C73.3023 17.5595 75.463 15.077 78.7041 15.077C80.405 15.077 81.7383 15.7896 82.4049 17.0078L82.5658 15.4448H85.1632V26.2254C85.1632 30.0181 82.8876 32.3857 79.2098 32.3857C75.9457 32.3857 73.716 30.5238 73.3712 27.4896H76.1756C76.3594 28.9608 77.4858 29.8343 79.2098 29.8343C81.1406 29.8343 82.3819 28.616 82.3819 26.7311V24.8462C81.6693 25.9036 80.2671 26.5702 78.6351 26.5702C75.417 26.5702 73.3023 24.1566 73.3023 20.8696ZM76.1296 20.8006C76.1296 22.7085 77.3479 24.1336 79.1868 24.1336C81.1176 24.1336 82.3129 22.7774 82.3129 20.8006C82.3129 18.8697 81.1406 17.5365 79.1868 17.5365C77.3249 17.5365 76.1296 18.9387 76.1296 20.8006Z" fill="#1D293D"></path>
<path d="M91.165 26.8L86.154 9.99699H89.2112L91.8776 18.8697C92.1304 19.7892 92.3833 20.7316 92.6361 22.2028C92.912 20.7087 93.1648 19.8352 93.4637 18.8697L96.1071 9.99699H99.3482L101.946 18.8697C102.221 19.8122 102.474 20.7776 102.75 22.2028C103.072 20.6397 103.302 19.7432 103.555 18.8927L106.267 9.99699H109.255L104.152 26.8H101.302L97.7161 14.5713L94.0613 26.8H91.165ZM112.725 27.0989C110.311 27.0989 108.84 25.6967 108.84 23.559C108.84 21.4672 110.357 20.157 113.047 19.9501L116.449 19.6973V19.4444C116.449 17.9043 115.529 17.2837 114.104 17.2837C112.449 17.2837 111.53 17.9733 111.53 19.1686H109.139C109.139 16.709 111.162 15.1 114.242 15.1C117.299 15.1 119.184 16.755 119.184 19.9041V26.8H116.724L116.518 25.122C116.035 26.2943 114.495 27.0989 112.725 27.0989ZM113.644 24.9841C115.368 24.9841 116.472 23.9497 116.472 22.2028V21.6051L114.104 21.789C112.357 21.9499 111.69 22.5246 111.69 23.444C111.69 24.4784 112.38 24.9841 113.644 24.9841ZM125.644 26.8H122.839V17.7894H120.655V15.4448H122.839V11.9049H125.644V15.4448H127.85V17.7894H125.644V26.8ZM128.815 21.0994C128.815 17.5825 131.136 15.1 134.492 15.1C137.596 15.1 139.71 16.824 140.009 19.5593H137.205C136.883 18.2721 135.941 17.6055 134.607 17.6055C132.814 17.6055 131.619 18.9617 131.619 21.0994C131.619 23.2372 132.722 24.5704 134.515 24.5704C135.918 24.5704 136.906 23.8808 137.205 22.6395H140.032C139.687 25.2829 137.481 27.0989 134.515 27.0989C131.067 27.0989 128.815 24.7083 128.815 21.0994ZM144.924 26.8H142.119V9.69817H144.947V16.9159C145.659 15.8126 146.993 15.1 148.625 15.1C151.429 15.1 152.9 16.8699 152.9 19.8122V26.8H150.096V20.4788C150.096 18.5709 149.153 17.6515 147.728 17.6515C145.958 17.6515 144.924 18.8927 144.924 20.5937V26.8Z" fill="#314158"></path>
</g>
</svg>